<svg width="150" height="150" viewBox="0 0 150 150" fill="none" xmlns="http://www.w3.org/2000/svg">
<rect x="0.5" y="0.5" width="149" height="149" fill="white" stroke="white"/>
<path d="M20.5459 69.5312L22.6172 65.0469H24.8594L21.5918 71.3906V75H19.5068V71.3906L16.2393 65.0469H18.4883L20.5459 69.5312ZM33.7393 70.249C33.7393 71.2288 33.5661 72.0879 33.2197 72.8262C32.8734 73.5645 32.3766 74.1341 31.7295 74.5352C31.0869 74.9362 30.3486 75.1367 29.5146 75.1367C28.6898 75.1367 27.9538 74.9385 27.3066 74.542C26.6595 74.1455 26.1582 73.5804 25.8027 72.8467C25.4473 72.1084 25.2673 71.2607 25.2627 70.3037V69.8115C25.2627 68.8317 25.4382 67.9704 25.7891 67.2275C26.1445 66.4801 26.6436 65.9082 27.2861 65.5117C27.9333 65.1107 28.6715 64.9102 29.501 64.9102C30.3304 64.9102 31.0664 65.1107 31.709 65.5117C32.3561 65.9082 32.8551 66.4801 33.2061 67.2275C33.5615 67.9704 33.7393 68.8294 33.7393 69.8047V70.249ZM31.6611 69.7979C31.6611 68.7542 31.4743 67.9613 31.1006 67.4189C30.7269 66.8766 30.1937 66.6055 29.501 66.6055C28.8128 66.6055 28.2819 66.8743 27.9082 67.4121C27.5345 67.9453 27.3454 68.7292 27.3408 69.7637V70.249C27.3408 71.2653 27.5277 72.0537 27.9014 72.6143C28.2751 73.1748 28.8128 73.4551 29.5146 73.4551C30.2028 73.4551 30.7314 73.1862 31.1006 72.6484C31.4697 72.1061 31.6566 71.3177 31.6611 70.2832V69.7979ZM42.7627 65.0469V71.6025C42.7627 72.6917 42.4209 73.5531 41.7373 74.1865C41.0583 74.82 40.1286 75.1367 38.9482 75.1367C37.7861 75.1367 36.8633 74.8291 36.1797 74.2139C35.4961 73.5986 35.1475 72.7533 35.1338 71.6777V65.0469H37.1846V71.6162C37.1846 72.2679 37.3395 72.7441 37.6494 73.0449C37.9639 73.3411 38.3968 73.4893 38.9482 73.4893C40.1012 73.4893 40.6868 72.8831 40.7051 71.6709V65.0469H42.7627ZM48.1289 71.3564H46.4951V75H44.4443V65.0469H48.1426C49.3184 65.0469 50.2253 65.3089 50.8633 65.833C51.5013 66.3571 51.8203 67.0977 51.8203 68.0547C51.8203 68.7337 51.6722 69.3011 51.376 69.7568C51.0843 70.208 50.64 70.568 50.043 70.8369L52.1963 74.9043V75H49.9951L48.1289 71.3564ZM46.4951 69.6953H48.1494C48.6644 69.6953 49.0632 69.5654 49.3457 69.3057C49.6283 69.0413 49.7695 68.679 49.7695 68.2188C49.7695 67.7493 49.6351 67.3802 49.3662 67.1113C49.1019 66.8424 48.694 66.708 48.1426 66.708H46.4951V69.6953ZM62.4912 72.9492H58.8955L58.2119 75H56.0312L59.7363 65.0469H61.6367L65.3623 75H63.1816L62.4912 72.9492ZM59.4492 71.2881H61.9375L60.6865 67.5625L59.4492 71.2881ZM69.9766 71.3564H68.3428V75H66.292V65.0469H69.9902C71.166 65.0469 72.0729 65.3089 72.7109 65.833C73.349 66.3571 73.668 67.0977 73.668 68.0547C73.668 68.7337 73.5199 69.3011 73.2236 69.7568C72.932 70.208 72.4876 70.568 71.8906 70.8369L74.0439 74.9043V75H71.8428L69.9766 71.3564ZM68.3428 69.6953H69.9971C70.512 69.6953 70.9108 69.5654 71.1934 69.3057C71.4759 69.0413 71.6172 68.679 71.6172 68.2188C71.6172 67.7493 71.4827 67.3802 71.2139 67.1113C70.9495 66.8424 70.5417 66.708 69.9902 66.708H68.3428V69.6953ZM81.2217 70.6865H77.2842V73.3525H81.9053V75H75.2334V65.0469H81.8916V66.708H77.2842V69.0801H81.2217V70.6865ZM94.7705 70.249C94.7705 71.2288 94.5973 72.0879 94.251 72.8262C93.9046 73.5645 93.4079 74.1341 92.7607 74.5352C92.1182 74.9362 91.3799 75.1367 90.5459 75.1367C89.721 75.1367 88.985 74.9385 88.3379 74.542C87.6908 74.1455 87.1895 73.5804 86.834 72.8467C86.4785 72.1084 86.2985 71.2607 86.2939 70.3037V69.8115C86.2939 68.8317 86.4694 67.9704 86.8203 67.2275C87.1758 66.4801 87.6748 65.9082 88.3174 65.5117C88.9645 65.1107 89.7028 64.9102 90.5322 64.9102C91.3617 64.9102 92.0977 65.1107 92.7402 65.5117C93.3874 65.9082 93.8864 66.4801 94.2373 67.2275C94.5928 67.9704 94.7705 68.8294 94.7705 69.8047V70.249ZM92.6924 69.7979C92.6924 68.7542 92.5055 67.9613 92.1318 67.4189C91.7581 66.8766 91.2249 66.6055 90.5322 66.6055C89.8441 66.6055 89.3132 66.8743 88.9395 67.4121C88.5658 67.9453 88.3766 68.7292 88.3721 69.7637V70.249C88.3721 71.2653 88.5589 72.0537 88.9326 72.6143C89.3063 73.1748 89.8441 73.4551 90.5459 73.4551C91.234 73.4551 91.7627 73.1862 92.1318 72.6484C92.501 72.1061 92.6878 71.3177 92.6924 70.2832V69.7979ZM104.354 75H102.304L98.3115 68.4512V75H96.2607V65.0469H98.3115L102.311 71.6094V65.0469H104.354V75ZM116.714 66.708H113.665V75H111.614V66.708H108.606V65.0469H116.714V66.708ZM125.99 75H123.939V70.7344H119.94V75H117.89V65.0469H119.94V69.0801H123.939V65.0469H125.99V75ZM133.776 70.6865H129.839V73.3525H134.46V75H127.788V65.0469H134.446V66.708H129.839V69.0801H133.776V70.6865ZM56.6328 87.6846C56.5553 88.7555 56.1589 89.5986 55.4434 90.2139C54.7324 90.8291 53.7936 91.1367 52.627 91.1367C51.3509 91.1367 50.346 90.7083 49.6123 89.8516C48.8831 88.9902 48.5186 87.8099 48.5186 86.3105V85.7021C48.5186 84.7451 48.6872 83.902 49.0244 83.1729C49.3617 82.4437 49.8424 81.8854 50.4668 81.498C51.0957 81.1061 51.8249 80.9102 52.6543 80.9102C53.8027 80.9102 54.7279 81.2178 55.4297 81.833C56.1315 82.4482 56.5371 83.3118 56.6465 84.4238H54.5957C54.5456 83.7812 54.3656 83.3164 54.0557 83.0293C53.7503 82.7376 53.2832 82.5918 52.6543 82.5918C51.9707 82.5918 51.458 82.8379 51.1162 83.3301C50.779 83.8177 50.6058 84.5765 50.5967 85.6064V86.3584C50.5967 87.4339 50.7585 88.2201 51.082 88.7168C51.4102 89.2135 51.9251 89.4619 52.627 89.4619C53.2604 89.4619 53.7321 89.3184 54.042 89.0312C54.3564 88.7396 54.5365 88.2907 54.582 87.6846H56.6328ZM63.5986 88.9492H60.0029L59.3193 91H57.1387L60.8438 81.0469H62.7441L66.4697 91H64.2891L63.5986 88.9492ZM60.5566 87.2881H63.0449L61.7939 83.5625L60.5566 87.2881ZM75.4932 91H73.4424L69.4502 84.4512V91H67.3994V81.0469H69.4502L73.4492 87.6094V81.0469H75.4932V91ZM80.9619 88.5322L83.2178 81.0469H85.501L82.0352 91H79.8955L76.4434 81.0469H78.7197L80.9619 88.5322ZM91.5439 88.9492H87.9482L87.2646 91H85.084L88.7891 81.0469H90.6895L94.415 91H92.2344L91.5439 88.9492ZM88.502 87.2881H90.9902L89.7393 83.5625L88.502 87.2881ZM100.506 88.3887C100.506 88.0013 100.369 87.7051 100.096 87.5C99.8223 87.2904 99.3301 87.0716 98.6191 86.8438C97.9082 86.6113 97.3454 86.3835 96.9307 86.1602C95.8005 85.5495 95.2354 84.7269 95.2354 83.6924C95.2354 83.1546 95.3857 82.6761 95.6865 82.2568C95.9919 81.833 96.4271 81.5026 96.9922 81.2656C97.5618 81.0286 98.1999 80.9102 98.9062 80.9102C99.6172 80.9102 100.251 81.04 100.807 81.2998C101.363 81.555 101.793 81.9173 102.099 82.3867C102.409 82.8561 102.563 83.3893 102.563 83.9863H100.513C100.513 83.5306 100.369 83.1774 100.082 82.9268C99.7949 82.6715 99.3916 82.5439 98.8721 82.5439C98.3708 82.5439 97.9811 82.651 97.7031 82.8652C97.4251 83.0749 97.2861 83.3529 97.2861 83.6992C97.2861 84.0228 97.4479 84.2939 97.7715 84.5127C98.0996 84.7314 98.5804 84.9365 99.2139 85.1279C100.381 85.4788 101.23 85.9141 101.764 86.4336C102.297 86.9531 102.563 87.6003 102.563 88.375C102.563 89.2363 102.238 89.9131 101.586 90.4053C100.934 90.8929 100.057 91.1367 98.9541 91.1367C98.1885 91.1367 97.4912 90.9977 96.8623 90.7197C96.2334 90.4372 95.7526 90.0521 95.4199 89.5645C95.0918 89.0768 94.9277 88.5117 94.9277 87.8691H96.9854C96.9854 88.9674 97.6416 89.5166 98.9541 89.5166C99.4417 89.5166 99.8223 89.4186 100.096 89.2227C100.369 89.0221 100.506 88.7441 100.506 88.3887Z" fill="black"/>
</svg>
