<svg width="23" height="20" viewBox="0 0 23 20" fill="none" xmlns="http://www.w3.org/2000/svg">
<path d="M17.6661 3.75419C16.5258 3.23094 15.3029 2.84544 14.0243 2.62464C14.0011 2.62038 13.9778 2.63103 13.9658 2.65233C13.8085 2.93205 13.6343 3.29697 13.5123 3.58379C12.1371 3.37791 10.769 3.37791 9.422 3.58379C9.29999 3.29059 9.11946 2.93205 8.96148 2.65233C8.94948 2.63174 8.92622 2.62109 8.90294 2.62464C7.62507 2.84473 6.4022 3.23024 5.26114 3.75419C5.25126 3.75845 5.24279 3.76555 5.23717 3.77478C2.91766 7.24008 2.28225 10.6202 2.59396 13.9584C2.59537 13.9748 2.60454 13.9904 2.61723 14.0003C4.14758 15.1242 5.62998 15.8065 7.08486 16.2587C7.10815 16.2658 7.13282 16.2573 7.14763 16.2381C7.49178 15.7681 7.79857 15.2726 8.0616 14.7514C8.07712 14.7209 8.0623 14.6847 8.03058 14.6726C7.54397 14.4881 7.08063 14.263 6.63492 14.0074C6.59967 13.9868 6.59684 13.9364 6.62928 13.9123C6.72307 13.842 6.81689 13.7689 6.90645 13.695C6.92265 13.6815 6.94523 13.6787 6.96428 13.6872C9.89238 15.0241 13.0624 15.0241 15.9559 13.6872C15.975 13.678 15.9976 13.6808 16.0145 13.6943C16.1041 13.7682 16.1979 13.842 16.2924 13.9123C16.3248 13.9364 16.3227 13.9868 16.2874 14.0074C15.8417 14.268 15.3784 14.4881 14.8911 14.6719C14.8593 14.684 14.8452 14.7209 14.8607 14.7514C15.1294 15.2718 15.4362 15.7674 15.774 16.2374C15.7881 16.2573 15.8135 16.2658 15.8368 16.2587C17.2987 15.8065 18.7811 15.1242 20.3115 14.0003C20.3249 13.9904 20.3333 13.9755 20.3347 13.9591C20.7078 10.0998 19.7099 6.74738 17.6894 3.77548C17.6845 3.76555 17.676 3.75845 17.6661 3.75419ZM8.49886 11.9258C7.6173 11.9258 6.89092 11.1165 6.89092 10.1225C6.89092 9.12857 7.60322 8.31923 8.49886 8.31923C9.40154 8.31923 10.1209 9.13567 10.1068 10.1225C10.1068 11.1165 9.39448 11.9258 8.49886 11.9258ZM14.4439 11.9258C13.5624 11.9258 12.836 11.1165 12.836 10.1225C12.836 9.12857 13.5483 8.31923 14.4439 8.31923C15.3466 8.31923 16.066 9.13567 16.0519 10.1225C16.0519 11.1165 15.3466 11.9258 14.4439 11.9258Z" fill="#5865F2"/>
</svg>
