<svg width="22" height="20" viewBox="0 0 22 20" fill="none" xmlns="http://www.w3.org/2000/svg">
<path d="M11 20C16.5228 20 21 15.5228 21 10C21 4.47715 16.5228 0 11 0C5.47715 0 1 4.47715 1 10C1 15.5228 5.47715 20 11 20Z" fill="#13B5EC"/>
<path fill-rule="evenodd" clip-rule="evenodd" d="M11.8236 7.37445L14.2941 5.93328V8.81563L11.8236 7.37445ZM14.2941 13.5509L11 15.4725L7.70591 13.5509V10.1882L11 12.1097L14.2941 10.1882V13.5509ZM7.70591 5.93328L10.1765 7.37445L7.70591 8.81563V5.93328ZM11.4118 8.06073L13.8824 9.50191L11.4118 10.9431V8.06073ZM10.5883 10.9431L8.11768 9.50191L10.5883 8.06073V10.9431ZM13.8824 5.247L11 6.89406L8.11768 5.247L11 3.53132L13.8824 5.247ZM6.88239 4.97249V13.9627L11 16.296L15.1177 13.9627V4.97249L11 2.63916L6.88239 4.97249Z" fill="white"/>
</svg>
