<svg width="109" height="107" viewBox="0 0 109 107" fill="none" xmlns="http://www.w3.org/2000/svg">
<rect width="109" height="107" fill="#802F2F"/>
<path d="M37.793 54.5664H32.9824V53.0312H37.793V54.5664ZM38.4785 58H32.9824C32.7715 58 32.541 57.9629 32.291 57.8887C32.041 57.8145 31.8086 57.6934 31.5938 57.5254C31.3828 57.3535 31.2051 57.1328 31.0605 56.8633C30.9199 56.5898 30.8496 56.2559 30.8496 55.8613V50.3652C30.8496 50.2598 30.8691 50.1602 30.9082 50.0664C30.9473 49.9727 31 49.8906 31.0664 49.8203C31.1367 49.75 31.2188 49.6953 31.3125 49.6562C31.4062 49.6172 31.5078 49.5977 31.6172 49.5977H38.4785V51.1211H32.373V55.8613C32.373 56.0605 32.4258 56.2129 32.5312 56.3184C32.6367 56.4238 32.791 56.4766 32.9941 56.4766H38.4785V58ZM48.3516 52.4219C48.3516 52.7695 48.3086 53.0801 48.2227 53.3535C48.1367 53.627 48.0195 53.8691 47.8711 54.0801C47.7266 54.2871 47.5586 54.4648 47.3672 54.6133C47.1758 54.7617 46.9746 54.8848 46.7637 54.9824C46.5566 55.0762 46.3457 55.1445 46.1309 55.1875C45.9199 55.2305 45.7207 55.252 45.5332 55.252L48.7148 58H46.3594L43.1836 55.252H42.0879V53.7285H45.5332C45.7246 53.7129 45.8984 53.6738 46.0547 53.6113C46.2148 53.5449 46.3516 53.457 46.4648 53.3477C46.582 53.2383 46.6719 53.1074 46.7344 52.9551C46.7969 52.7988 46.8281 52.6211 46.8281 52.4219V51.4609C46.8281 51.375 46.8164 51.3105 46.793 51.2676C46.7734 51.2207 46.7461 51.1875 46.7109 51.168C46.6797 51.1445 46.6445 51.1309 46.6055 51.127C46.5703 51.123 46.5371 51.1211 46.5059 51.1211H41.4785V58H39.9551V50.3652C39.9551 50.2598 39.9746 50.1602 40.0137 50.0664C40.0527 49.9727 40.1055 49.8906 40.1719 49.8203C40.2422 49.75 40.3242 49.6953 40.418 49.6562C40.5117 49.6172 40.6133 49.5977 40.7227 49.5977H46.5059C46.8457 49.5977 47.1328 49.6602 47.3672 49.7852C47.6016 49.9062 47.791 50.0605 47.9355 50.248C48.084 50.4316 48.1895 50.6309 48.252 50.8457C48.3184 51.0605 48.3516 51.2617 48.3516 51.4492V52.4219ZM58.2773 52.4219C58.2773 52.7695 58.2344 53.0801 58.1484 53.3535C58.0625 53.627 57.9453 53.8691 57.7969 54.0801C57.6523 54.2871 57.4844 54.4648 57.293 54.6133C57.1016 54.7617 56.9004 54.8848 56.6895 54.9824C56.4824 55.0762 56.2715 55.1445 56.0566 55.1875C55.8457 55.2305 55.6465 55.252 55.459 55.252L58.6406 58H56.2852L53.1094 55.252H52.0137V53.7285H55.459C55.6504 53.7129 55.8242 53.6738 55.9805 53.6113C56.1406 53.5449 56.2773 53.457 56.3906 53.3477C56.5078 53.2383 56.5977 53.1074 56.6602 52.9551C56.7227 52.7988 56.7539 52.6211 56.7539 52.4219V51.4609C56.7539 51.375 56.7422 51.3105 56.7188 51.2676C56.6992 51.2207 56.6719 51.1875 56.6367 51.168C56.6055 51.1445 56.5703 51.1309 56.5312 51.127C56.4961 51.123 56.4629 51.1211 56.4316 51.1211H51.4043V58H49.8809V50.3652C49.8809 50.2598 49.9004 50.1602 49.9395 50.0664C49.9785 49.9727 50.0312 49.8906 50.0977 49.8203C50.168 49.75 50.25 49.6953 50.3438 49.6562C50.4375 49.6172 50.5391 49.5977 50.6484 49.5977H56.4316C56.7715 49.5977 57.0586 49.6602 57.293 49.7852C57.5273 49.9062 57.7168 50.0605 57.8613 50.248C58.0098 50.4316 58.1152 50.6309 58.1777 50.8457C58.2441 51.0605 58.2773 51.2617 58.2773 51.4492V52.4219ZM68.625 54.6016C68.625 55.1133 68.5371 55.584 68.3613 56.0137C68.1855 56.4434 67.9414 56.8145 67.6289 57.127C67.3164 57.4395 66.9453 57.6836 66.5156 57.8594C66.0898 58.0312 65.625 58.1172 65.1211 58.1172H63.0586C62.5547 58.1172 62.0879 58.0312 61.6582 57.8594C61.2285 57.6836 60.8574 57.4395 60.5449 57.127C60.2324 56.8145 59.9863 56.4434 59.8066 56.0137C59.6309 55.584 59.543 55.1133 59.543 54.6016V52.9961C59.543 52.4883 59.6309 52.0195 59.8066 51.5898C59.9863 51.1562 60.2324 50.7852 60.5449 50.4766C60.8574 50.1641 61.2285 49.9199 61.6582 49.7441C62.0879 49.5684 62.5547 49.4805 63.0586 49.4805H65.1211C65.625 49.4805 66.0898 49.5684 66.5156 49.7441C66.9453 49.9199 67.3164 50.1641 67.6289 50.4766C67.9414 50.7852 68.1855 51.1562 68.3613 51.5898C68.5371 52.0195 68.625 52.4883 68.625 52.9961V54.6016ZM67.1016 52.9961C67.1016 52.6953 67.0527 52.4238 66.9551 52.1816C66.8613 51.9355 66.7266 51.7266 66.5508 51.5547C66.3789 51.3789 66.1699 51.2441 65.9238 51.1504C65.6816 51.0527 65.4141 51.0039 65.1211 51.0039H63.0586C62.7617 51.0039 62.4902 51.0527 62.2441 51.1504C62.002 51.2441 61.793 51.3789 61.6172 51.5547C61.4414 51.7266 61.3047 51.9355 61.207 52.1816C61.1133 52.4238 61.0664 52.6953 61.0664 52.9961V54.6016C61.0664 54.9023 61.1133 55.1758 61.207 55.4219C61.3047 55.6641 61.4414 55.873 61.6172 56.0488C61.793 56.2207 62.002 56.3555 62.2441 56.4531C62.4902 56.5469 62.7617 56.5938 63.0586 56.5938H65.1094C65.4062 56.5938 65.6758 56.5469 65.918 56.4531C66.1641 56.3555 66.375 56.2207 66.5508 56.0488C66.7266 55.873 66.8613 55.6641 66.9551 55.4219C67.0527 55.1758 67.1016 54.9023 67.1016 54.6016V52.9961ZM78.5273 52.4219C78.5273 52.7695 78.4844 53.0801 78.3984 53.3535C78.3125 53.627 78.1953 53.8691 78.0469 54.0801C77.9023 54.2871 77.7344 54.4648 77.543 54.6133C77.3516 54.7617 77.1504 54.8848 76.9395 54.9824C76.7324 55.0762 76.5215 55.1445 76.3066 55.1875C76.0957 55.2305 75.8965 55.252 75.709 55.252L78.8906 58H76.5352L73.3594 55.252H72.2637V53.7285H75.709C75.9004 53.7129 76.0742 53.6738 76.2305 53.6113C76.3906 53.5449 76.5273 53.457 76.6406 53.3477C76.7578 53.2383 76.8477 53.1074 76.9102 52.9551C76.9727 52.7988 77.0039 52.6211 77.0039 52.4219V51.4609C77.0039 51.375 76.9922 51.3105 76.9688 51.2676C76.9492 51.2207 76.9219 51.1875 76.8867 51.168C76.8555 51.1445 76.8203 51.1309 76.7812 51.127C76.7461 51.123 76.7129 51.1211 76.6816 51.1211H71.6543V58H70.1309V50.3652C70.1309 50.2598 70.1504 50.1602 70.1895 50.0664C70.2285 49.9727 70.2812 49.8906 70.3477 49.8203C70.418 49.75 70.5 49.6953 70.5938 49.6562C70.6875 49.6172 70.7891 49.5977 70.8984 49.5977H76.6816C77.0215 49.5977 77.3086 49.6602 77.543 49.7852C77.7773 49.9062 77.9668 50.0605 78.1113 50.248C78.2598 50.4316 78.3652 50.6309 78.4277 50.8457C78.4941 51.0605 78.5273 51.2617 78.5273 51.4492V52.4219Z" fill="black"/>
</svg>
