<svg width="16" height="18" viewBox="0 0 16 18" fill="none" xmlns="http://www.w3.org/2000/svg">
<path d="M15.5 9C15.5 11.8646 15.0203 13.97 13.8903 15.3591C12.7799 16.7242 10.9536 17.5 8 17.5C5.04641 17.5 3.22014 16.7242 2.1097 15.3591C0.979735 13.97 0.5 11.8646 0.5 9C0.5 6.13537 0.979735 4.03001 2.1097 2.6409C3.22014 1.27579 5.04641 0.5 8 0.5C10.9536 0.5 12.7799 1.27579 13.8903 2.6409C15.0203 4.03001 15.5 6.13537 15.5 9Z" fill="black" stroke="white"/>
<path d="M9.04199 14.5H7.14355V6.04688H9.04199V14.5ZM7.02637 3.85156C7.02637 3.5599 7.11751 3.31771 7.2998 3.125C7.4873 2.93229 7.75293 2.83594 8.09668 2.83594C8.44043 2.83594 8.70605 2.93229 8.89355 3.125C9.08105 3.31771 9.1748 3.5599 9.1748 3.85156C9.1748 4.13802 9.08105 4.3776 8.89355 4.57031C8.70605 4.75781 8.44043 4.85156 8.09668 4.85156C7.75293 4.85156 7.4873 4.75781 7.2998 4.57031C7.11751 4.3776 7.02637 4.13802 7.02637 3.85156Z" fill="white"/>
</svg>
