<svg width="16" height="19" viewBox="0 0 16 19" fill="none" xmlns="http://www.w3.org/2000/svg">
<path d="M15.5 9.5C15.5 12.3646 15.0203 14.47 13.8903 15.8591C12.7799 17.2242 10.9536 18 8 18C5.04641 18 3.22014 17.2242 2.1097 15.8591C0.979735 14.47 0.5 12.3646 0.5 9.5C0.5 6.63537 0.979735 4.53001 2.1097 3.1409C3.22014 1.77579 5.04641 1 8 1C10.9536 1 12.7799 1.77579 13.8903 3.1409C15.0203 4.53001 15.5 6.63537 15.5 9.5Z" fill="white" stroke="white"/>
<path d="M9.01562 15.1641H7.11719V6.71094H9.01562V15.1641ZM7 4.51562C7 4.22396 7.09115 3.98177 7.27344 3.78906C7.46094 3.59635 7.72656 3.5 8.07031 3.5C8.41406 3.5 8.67969 3.59635 8.86719 3.78906C9.05469 3.98177 9.14844 4.22396 9.14844 4.51562C9.14844 4.80208 9.05469 5.04167 8.86719 5.23438C8.67969 5.42188 8.41406 5.51562 8.07031 5.51562C7.72656 5.51562 7.46094 5.42188 7.27344 5.23438C7.09115 5.04167 7 4.80208 7 4.51562Z" fill="black"/>
</svg>
