<svg width="125" height="125" viewBox="0 0 125 125" fill="none" xmlns="http://www.w3.org/2000/svg">
<rect width="125" height="125" rx="5" fill="#C4C4C4"/>
<path d="M63 92C79.5685 92 93 78.5685 93 62C93 45.4315 79.5685 32 63 32C46.4315 32 33 45.4315 33 62C33 78.5685 46.4315 92 63 92Z" fill="#3F4A4E"/>
<path fill-rule="evenodd" clip-rule="evenodd" d="M65.25 56.1875L72 52.25V60.125L65.25 56.1875ZM72 73.0625L63 78.3125L54 73.0625V63.875L63 69.125L72 63.875V73.0625ZM54 52.25L60.75 56.1875L54 60.125V52.25ZM64.125 58.0625L70.875 62L64.125 65.9375V58.0625ZM61.875 65.9375L55.125 62L61.875 58.0625V65.9375ZM70.875 50.375L63 54.875L55.125 50.375L63 45.6875L70.875 50.375ZM51.75 49.625V74.1875L63 80.5625L74.25 74.1875V49.625L63 43.25L51.75 49.625Z" fill="white"/>
</svg>
