<svg width="25" height="20" viewBox="0 0 25 20" fill="none" xmlns="http://www.w3.org/2000/svg">
<path d="M8.6407 4C11.756 4 14.2812 6.46257 14.2812 9.50009C14.2812 12.5376 11.7558 15 8.6407 15C5.52561 15 3 12.5376 3 9.50009C3 6.46257 5.52542 4 8.6407 4ZM17.6485 4.32218C19.2061 4.32218 20.4688 6.64018 20.4688 9.50009H20.469C20.469 12.3593 19.2063 14.678 17.6487 14.678C16.091 14.678 14.8283 12.3593 14.8283 9.50009C14.8283 6.64092 16.0908 4.32218 17.6485 4.32218ZM22.0081 4.8615C22.5558 4.8615 23 6.93823 23 9.50009C23 12.0612 22.556 14.1387 22.0081 14.1387C21.4602 14.1387 21.0163 12.0618 21.0163 9.50009C21.0163 6.93842 21.4604 4.8615 22.0081 4.8615Z" fill="white"/>
</svg>
