<svg width="140" height="57" viewBox="0 0 140 57" fill="none" xmlns="http://www.w3.org/2000/svg">
<rect x="0.5" y="0.5" width="139" height="55.3889" fill="black" stroke="white"/>
<path fill-rule="evenodd" clip-rule="evenodd" d="M72.5 22.9375L79.25 19V26.875L72.5 22.9375ZM79.25 39.8125L70.25 45.0625L61.25 39.8125V30.625L70.25 35.875L79.25 30.625V39.8125ZM61.25 19L68 22.9375L61.25 26.875V19ZM71.375 24.8125L78.125 28.75L71.375 32.6875V24.8125ZM69.125 32.6875L62.375 28.75L69.125 24.8125V32.6875ZM78.125 17.125L70.25 21.625L62.375 17.125L70.25 12.4375L78.125 17.125ZM59 16.375V40.9375L70.25 47.3125L81.5 40.9375V16.375L70.25 10L59 16.375Z" fill="white"/>
</svg>
