<svg width="150" height="150" viewBox="0 0 150 150" fill="none" xmlns="http://www.w3.org/2000/svg">
<rect x="0.5" y="0.5" width="149" height="149" fill="black" stroke="white"/>
<path fill-rule="evenodd" clip-rule="evenodd" d="M77.25 69.1875L84 65.25V73.125L77.25 69.1875ZM84 86.0625L75 91.3125L66 86.0625V76.875L75 82.125L84 76.875V86.0625ZM66 65.25L72.75 69.1875L66 73.125V65.25ZM76.125 71.0625L82.875 75L76.125 78.9375V71.0625ZM73.875 78.9375L67.125 75L73.875 71.0625V78.9375ZM82.875 63.375L75 67.875L67.125 63.375L75 58.6875L82.875 63.375ZM63.75 62.625V87.1875L75 93.5625L86.25 87.1875V62.625L75 56.25L63.75 62.625Z" fill="white"/>
</svg>
