<svg width="24" height="20" viewBox="0 0 24 20" fill="none" xmlns="http://www.w3.org/2000/svg">
<path d="M20.5859 4.45968C19.9647 4.73669 19.2971 4.92392 18.5964 5.00812C19.3116 4.57704 19.8608 3.89448 20.1195 3.0812C19.4502 3.48029 18.7089 3.77016 17.9199 3.9264C17.288 3.24948 16.3877 2.82648 15.3915 2.82648C13.4784 2.82648 11.9275 4.38591 11.9275 6.30935C11.9275 6.58233 11.9581 6.84817 12.0172 7.10307C9.13832 6.95783 6.58596 5.57121 4.87751 3.46402C4.57935 3.97843 4.40853 4.57673 4.40853 5.21503C4.40853 6.42336 5.02011 7.48944 5.94955 8.11401C5.38169 8.09594 4.84762 7.93927 4.38055 7.6784C4.3803 7.69293 4.3803 7.70752 4.3803 7.72218C4.3803 9.40972 5.57431 10.8174 7.15894 11.1374C6.86825 11.217 6.56224 11.2595 6.24629 11.2595C6.0231 11.2595 5.80609 11.2377 5.59463 11.197C6.03539 12.5808 7.31463 13.5878 8.83039 13.6159C7.64491 14.55 6.15131 15.1068 4.52846 15.1068C4.24888 15.1068 3.97314 15.0904 3.70215 15.0582C5.23508 16.0464 7.05587 16.623 9.01202 16.623C15.3834 16.623 18.8675 11.3158 18.8675 6.71323C18.8675 6.56221 18.8641 6.412 18.8575 6.26266C19.5342 5.7716 20.1215 5.15814 20.5859 4.45968Z" fill="#1D9BF0"/>
</svg>
