<svg width="150" height="150" viewBox="0 0 150 150" fill="none" xmlns="http://www.w3.org/2000/svg">
<rect x="0.5" y="0.5" width="149" height="149" fill="white" stroke="white"/>
<path d="M33.4219 70.0469V76.6025C33.4219 77.6917 33.0801 78.5531 32.3965 79.1865C31.7174 79.82 30.7878 80.1367 29.6074 80.1367C28.4453 80.1367 27.5225 79.8291 26.8389 79.2139C26.1553 78.5986 25.8066 77.7533 25.793 76.6777V70.0469H27.8438V76.6162C27.8438 77.2679 27.9987 77.7441 28.3086 78.0449C28.623 78.3411 29.056 78.4893 29.6074 78.4893C30.7604 78.4893 31.346 77.8831 31.3643 76.6709V70.0469H33.4219ZM37.1543 76.4932V80H35.1035V70.0469H38.9863C39.7337 70.0469 40.39 70.1836 40.9551 70.457C41.5247 70.7305 41.9622 71.1201 42.2676 71.626C42.5729 72.1273 42.7256 72.6992 42.7256 73.3418C42.7256 74.3171 42.3906 75.0872 41.7207 75.6523C41.0553 76.2129 40.1325 76.4932 38.9521 76.4932H37.1543ZM37.1543 74.832H38.9863C39.5286 74.832 39.9411 74.7044 40.2236 74.4492C40.5107 74.194 40.6543 73.8294 40.6543 73.3555C40.6543 72.8678 40.5107 72.4736 40.2236 72.1729C39.9365 71.8721 39.54 71.7171 39.0342 71.708H37.1543V74.832ZM46.1914 78.3525H50.5459V80H44.1406V70.0469H46.1914V78.3525ZM59.4668 75.249C59.4668 76.2288 59.2936 77.0879 58.9473 77.8262C58.6009 78.5645 58.1042 79.1341 57.457 79.5352C56.8145 79.9362 56.0762 80.1367 55.2422 80.1367C54.4173 80.1367 53.6813 79.9385 53.0342 79.542C52.387 79.1455 51.8857 78.5804 51.5303 77.8467C51.1748 77.1084 50.9948 76.2607 50.9902 75.3037V74.8115C50.9902 73.8317 51.1657 72.9704 51.5166 72.2275C51.8721 71.4801 52.3711 70.9082 53.0137 70.5117C53.6608 70.1107 54.3991 69.9102 55.2285 69.9102C56.0579 69.9102 56.7939 70.1107 57.4365 70.5117C58.0837 70.9082 58.5827 71.4801 58.9336 72.2275C59.2891 72.9704 59.4668 73.8294 59.4668 74.8047V75.249ZM57.3887 74.7979C57.3887 73.7542 57.2018 72.9613 56.8281 72.4189C56.4544 71.8766 55.9212 71.6055 55.2285 71.6055C54.5404 71.6055 54.0094 71.8743 53.6357 72.4121C53.262 72.9453 53.0729 73.7292 53.0684 74.7637V75.249C53.0684 76.2653 53.2552 77.0537 53.6289 77.6143C54.0026 78.1748 54.5404 78.4551 55.2422 78.4551C55.9303 78.4551 56.459 78.1862 56.8281 77.6484C57.1973 77.1061 57.3841 76.3177 57.3887 75.2832V74.7979ZM66.4258 77.9492H62.8301L62.1465 80H59.9658L63.6709 70.0469H65.5713L69.2969 80H67.1162L66.4258 77.9492ZM63.3838 76.2881H65.8721L64.6211 72.5625L63.3838 76.2881ZM70.2266 80V70.0469H73.2891C74.1641 70.0469 74.9456 70.2451 75.6338 70.6416C76.3265 71.0335 76.8665 71.5941 77.2539 72.3232C77.6413 73.0479 77.835 73.8727 77.835 74.7979V75.2559C77.835 76.181 77.6436 77.0036 77.2607 77.7236C76.8825 78.4437 76.347 79.002 75.6543 79.3984C74.9616 79.7949 74.18 79.9954 73.3096 80H70.2266ZM72.2773 71.708V78.3525H73.2686C74.0706 78.3525 74.6836 78.0905 75.1074 77.5664C75.5312 77.0423 75.7477 76.2926 75.7568 75.3174V74.791C75.7568 73.7793 75.5472 73.0137 75.1279 72.4941C74.7087 71.9701 74.0957 71.708 73.2891 71.708H72.2773ZM84.999 80H82.9482V70.0469H84.999V80ZM89.5859 70.0469L92.1426 77.2656L94.6855 70.0469H97.3789V80H95.3213V77.2793L95.5264 72.583L92.8398 80H91.4316L88.752 72.5898L88.957 77.2793V80H86.9062V70.0469H89.5859ZM104.912 77.9492H101.316L100.633 80H98.4521L102.157 70.0469H104.058L107.783 80H105.603L104.912 77.9492ZM101.87 76.2881H104.358L103.107 72.5625L101.87 76.2881ZM116.438 78.7422C116.068 79.1842 115.547 79.5283 114.872 79.7744C114.198 80.016 113.45 80.1367 112.63 80.1367C111.769 80.1367 111.012 79.9499 110.36 79.5762C109.713 79.1979 109.212 78.651 108.856 77.9355C108.506 77.2201 108.326 76.3792 108.316 75.4131V74.7363C108.316 73.7428 108.483 72.8838 108.815 72.1592C109.153 71.43 109.636 70.874 110.265 70.4912C110.898 70.1038 111.639 69.9102 112.486 69.9102C113.667 69.9102 114.59 70.1927 115.255 70.7578C115.92 71.3184 116.314 72.1364 116.438 73.2119H114.441C114.35 72.6423 114.147 72.2253 113.833 71.9609C113.523 71.6966 113.095 71.5645 112.548 71.5645C111.851 71.5645 111.32 71.8265 110.955 72.3506C110.59 72.8747 110.406 73.654 110.401 74.6885V75.3242C110.401 76.3678 110.6 77.1562 110.996 77.6895C111.393 78.2227 111.974 78.4893 112.739 78.4893C113.509 78.4893 114.059 78.3252 114.387 77.9971V76.2812H112.521V74.7705H116.438V78.7422ZM124.094 75.6865H120.156V78.3525H124.777V80H118.105V70.0469H124.764V71.708H120.156V74.0801H124.094V75.6865Z" fill="black"/>
</svg>
